<?xml version="1.0" standalone="no"?>
<!DOCTYPE svg PUBLIC "-//W3C//DTD SVG 20010904//EN"
 "http://www.w3.org/TR/2001/REC-SVG-20010904/DTD/svg10.dtd">
<svg version="1.0" xmlns="http://www.w3.org/2000/svg"
 width="180.000000pt" height="180.000000pt" viewBox="0 0 180.000000 180.000000"
 preserveAspectRatio="xMidYMid meet">
<metadata>
Created by potrace 1.14, written by Peter Selinger 2001-2017
</metadata>
<g transform="translate(0.000000,180.000000) scale(0.100000,-0.100000)"
fill="#000000" stroke="none">
<path d="M0 900 l0 -900 44 0 45 0 25 83 c13 45 41 138 61 207 53 178 61 196
98 212 33 14 229 19 242 6 7 -6 -30 -257 -42 -288 -6 -15 -52 109 -52 143 -1
9 11 36 25 58 35 55 25 74 -11 20 -28 -42 -29 -42 -38 -19 -7 16 -11 19 -14 8
-7 -31 130 -430 149 -430 13 0 10 18 -17 93 l-26 70 21 126 c11 69 22 140 25
158 l6 31 42 -24 c30 -17 57 -24 96 -24 38 0 52 -3 49 -12 -3 -7 -22 -102 -43
-210 -33 -170 -39 -225 -21 -207 2 2 25 107 51 233 25 126 48 233 50 236 10
15 125 -12 198 -47 70 -34 79 -41 89 -76 6 -21 24 -50 39 -65 l27 -25 -24 -32
-24 -32 -60 31 c-33 17 -60 37 -60 44 0 8 -5 12 -12 10 -7 -3 -29 -53 -50
-112 -20 -59 -39 -110 -41 -112 -4 -5 -50 229 -63 319 -5 35 -10 45 -17 38
-12 -12 34 -290 60 -369 l15 -42 52 0 c49 0 54 2 91 47 22 26 53 65 69 87 l29
40 12 -34 c14 -42 66 -80 108 -80 l31 0 -29 -30 -29 -30 124 0 c68 0 121 2
119 5 -3 2 -34 20 -70 39 -57 30 -65 38 -70 69 -3 20 -11 43 -18 51 -10 12 -9
20 6 40 10 14 24 28 31 30 7 3 93 -37 191 -89 97 -52 181 -95 185 -95 4 0 21
-9 38 -21 16 -12 30 -20 32 -18 1 2 15 20 29 40 l27 36 0 856 0 857 -375 0
c-367 0 -375 0 -396 -21 -16 -16 -19 -28 -14 -47 3 -15 7 -38 8 -52 2 -29 -9
-30 -92 -6 -34 9 -84 14 -133 12 -43 -1 -78 0 -78 2 0 3 9 20 21 38 26 43 18
74 -19 74 -23 -1 -25 -2 -9 -11 22 -13 22 -25 -4 -60 -11 -16 -18 -37 -15 -46
4 -13 -5 -23 -34 -36 -53 -25 -132 -107 -162 -170 -30 -60 -61 -181 -83 -320
-10 -66 -22 -108 -37 -127 -30 -42 -21 -105 23 -143 24 -22 34 -43 44 -88 6
-33 9 -61 6 -63 -3 -2 -23 -8 -44 -14 l-37 -10 31 43 c17 24 28 48 25 53 -3 6
-32 13 -64 17 -96 10 -101 15 -53 54 23 19 41 40 41 47 0 8 -45 44 -101 81
-90 60 -99 68 -83 80 10 7 24 13 32 13 26 0 162 69 162 82 0 7 -19 22 -43 34
-23 11 -87 49 -141 85 -72 46 -94 65 -80 67 10 2 73 22 139 43 66 21 130 39
142 39 31 0 29 16 -8 97 -67 145 -89 196 -87 198 2 2 53 -10 113 -26 109 -29
165 -36 165 -21 0 4 7 28 15 55 l14 47 -294 0 -295 0 0 -900z m1086 795 c-7
-98 -11 -94 89 -70 33 8 65 14 72 15 7 0 -1 -27 -20 -67 -58 -122 -78 -156
-88 -146 -5 5 -13 37 -17 73 -8 56 -14 68 -50 102 -34 31 -38 39 -25 47 11 5
14 16 10 32 -20 81 -20 78 4 88 13 5 26 10 28 10 2 1 1 -37 -3 -84z m-116 -89
c44 -23 97 -72 116 -108 16 -32 13 -34 -19 -14 -62 41 -210 57 -303 32 -66
-18 -100 -41 -113 -77 -15 -42 8 -48 83 -21 90 32 141 36 215 17 67 -17 145
-60 136 -74 -2 -5 3 -8 12 -7 10 0 19 -6 20 -14 3 -12 -4 -15 -35 -12 -52 5
-97 -19 -121 -66 -19 -36 -20 -36 -21 -10 0 15 -5 30 -10 33 -6 4 -8 16 -5 28
2 12 2 17 -1 10 -4 -8 -15 -6 -39 8 -19 11 -58 23 -87 25 -71 7 -115 -16 -145
-76 -28 -54 -29 -84 -3 -134 10 -22 17 -43 13 -49 -4 -6 -1 -7 6 -3 7 5 21 0
32 -10 13 -11 40 -19 77 -21 69 -5 117 17 143 67 16 29 19 31 25 14 3 -10 10
-30 14 -44 9 -25 15 -109 12 -162 -4 -55 -32 -21 -66 76 -5 14 -10 16 -18 8
-13 -13 13 -95 39 -124 32 -36 72 -10 73 47 0 29 2 30 43 30 l44 0 -8 -35 c-5
-19 -9 -38 -9 -42 0 -5 -9 -8 -20 -8 -11 0 -20 -7 -20 -15 0 -11 11 -15 39
-15 45 0 71 -26 71 -71 0 -61 -118 -167 -187 -168 -31 -1 -37 -8 -34 -37 2
-19 -79 -48 -133 -48 -61 0 -159 31 -150 46 4 7 2 8 -4 4 -25 -15 -84 35 -121
104 -31 58 -56 159 -42 173 16 16 14 27 -8 27 -35 0 -71 38 -71 76 0 45 29 74
75 74 33 0 46 12 27 24 -17 10 31 256 71 360 28 75 97 152 162 183 42 19 63
23 130 20 51 -2 92 -10 115 -21z m73 -142 c57 -26 79 -46 90 -76 8 -24 2 -23
-36 6 -68 50 -119 69 -202 74 -63 3 -93 0 -142 -17 -77 -26 -90 -27 -72 -4 53
64 245 73 362 17z m180 -127 l49 -23 -39 -26 -39 -26 -23 26 c-15 17 -21 32
-16 49 7 28 8 28 68 0z m-397 -8 c63 -16 94 -56 94 -121 0 -43 -4 -54 -33 -83
-86 -86 -227 -31 -227 90 0 57 31 99 85 117 29 9 32 9 81 -3z m328 -61 c26
-28 28 -36 24 -90 -5 -66 -30 -101 -84 -117 -93 -27 -158 82 -114 190 27 65
121 74 174 17z m-96 -235 c39 -7 42 -20 5 -26 -47 -9 -61 -5 -66 20 -3 19 -1
23 12 18 9 -4 31 -9 49 -12z m102 -44 c0 -3 -12 -11 -26 -18 -23 -10 -26 -10
-20 4 3 9 6 29 6 43 l0 27 20 -25 c11 -14 20 -28 20 -31z m149 -317 c-7 -88
-9 -168 -5 -177 8 -22 29 -8 23 16 -10 37 10 19 23 -21 13 -40 37 -50 33 -14
-1 11 3 7 11 -10 14 -31 8 -73 -16 -104 -31 -43 -102 -111 -110 -106 -5 3 -7
0 -6 -8 2 -7 -3 -12 -10 -10 -8 1 -11 -1 -8 -6 3 -5 -1 -18 -9 -28 -13 -18
-16 -18 -42 -4 -15 9 -34 28 -42 44 -7 15 -26 40 -42 55 -31 29 -57 106 -45
137 6 16 10 13 21 -20 7 -21 11 -45 8 -53 -14 -37 45 20 72 68 25 47 26 52 11
67 -15 15 -16 15 -17 -3 0 -17 -2 -16 -10 4 -10 26 -22 20 -34 -16 -5 -17 -2
-23 9 -23 17 0 20 -9 10 -34 -10 -26 -23 -18 -29 17 -8 42 15 101 45 117 17 9
26 8 47 -5 14 -10 28 -26 30 -36 3 -10 11 -19 18 -19 10 0 12 13 8 53 -8 75
42 305 62 285 3 -3 0 -78 -6 -166z m-682 -126 c26 -13 63 -27 81 -31 25 -5 32
-12 32 -31 0 -22 -3 -24 -55 -24 -56 0 -101 16 -124 43 -9 12 -9 21 0 41 7 14
13 26 15 26 1 0 24 -11 51 -24z m553 -366 c33 -14 39 -27 15 -36 -8 -4 -15
-13 -15 -20 0 -20 -27 -29 -45 -14 -18 15 -29 71 -20 100 7 21 7 21 21 2 7
-10 27 -25 44 -32z m75 -51 c8 -25 0 -34 -37 -43 -33 -8 -35 2 -7 38 25 31 36
33 44 5z"/>
<path d="M586 1433 c-6 -14 -5 -15 5 -6 7 7 10 15 7 18 -3 3 -9 -2 -12 -12z"/>
<path d="M627 1083 c-14 -13 -6 -30 24 -52 36 -26 126 -39 155 -22 11 6 14 11
6 11 -7 0 -11 4 -8 8 3 5 -8 6 -24 4 -48 -7 -100 7 -125 33 -12 14 -25 22 -28
18z"/>
<path d="M602 920 c-26 -22 -52 -78 -52 -115 0 -38 23 -86 60 -125 22 -23 35
-31 38 -22 2 7 -5 23 -16 35 -30 33 -52 82 -52 117 0 68 55 119 113 104 21 -5
27 -2 27 10 0 24 -88 21 -118 -4z"/>
<path d="M626 871 c2 -2 -1 -10 -8 -18 -14 -17 -12 -81 3 -99 6 -7 8 -18 4
-24 -4 -6 -3 -9 2 -8 4 2 24 -9 43 -23 46 -35 121 -58 199 -63 90 -6 149 14
206 69 42 42 46 49 43 88 -3 42 -3 42 -45 45 -27 2 -55 -4 -82 -17 -73 -38
-162 -25 -241 34 -28 21 -44 25 -82 23 -25 -2 -45 -5 -42 -7z"/>
<path d="M785 1150 c-11 -18 13 -36 31 -25 9 6 16 15 17 20 3 14 -40 18 -48 5z"/>
<path d="M1090 1121 c0 -25 19 -38 31 -20 12 19 6 33 -14 37 -11 2 -17 -3 -17
-17z"/>
<path d="M620 510 c-9 -6 -10 -10 -3 -10 6 0 15 5 18 10 8 12 4 12 -15 0z"/>
<path d="M852 1792 c19 -45 44 -92 49 -92 3 0 14 19 24 43 10 23 20 45 23 50
2 4 -20 7 -48 7 -28 0 -50 -3 -48 -8z"/>
<path d="M217 333 c-4 -6 7 -50 23 -98 23 -68 27 -92 19 -107 -15 -28 28 -145
46 -126 3 3 -4 26 -15 52 -21 50 -26 77 -11 61 5 -6 16 -34 26 -62 9 -29 21
-53 27 -53 12 0 13 -4 -51 179 -27 79 -52 148 -54 154 -2 8 -5 8 -10 0z"/>
</g>
</svg>
